<svg width="1024" height="1024" viewBox="0 0 1024 1024" fill="none" xmlns="http://www.w3.org/2000/svg">
  <defs>
    <clipPath id="calendarBodyClip">
      <rect x="96" y="138" width="832" height="788" rx="96" ry="96"/>
    </clipPath>
  </defs>

  <!-- Solid, transparent-background app icon -->
  <rect x="96" y="138" width="832" height="788" rx="96" ry="96" fill="#FFFFFF"/>
  <g clip-path="url(#calendarBodyClip)">
    <rect x="96" y="138" width="832" height="166" fill="#1A73E8"/>
    <line x1="96" y1="304" x2="928" y2="304" stroke="#E5E9F0" stroke-width="3"/>
  </g>

  <!-- Calendar binding tabs -->
  <rect x="256" y="52" width="64" height="188" rx="32" fill="#DADFE8" stroke="#CBD2DC" stroke-width="3"/>
  <rect x="704" y="52" width="64" height="188" rx="32" fill="#DADFE8" stroke="#CBD2DC" stroke-width="3"/>
  <circle cx="288" cy="220" r="35" fill="#FFFFFF" stroke="#DADFE8" stroke-width="3"/>
  <circle cx="736" cy="220" r="35" fill="#FFFFFF" stroke="#DADFE8" stroke-width="3"/>

  <!-- Calendar edge -->
  <rect x="96" y="138" width="832" height="788" rx="96" ry="96" stroke="#DADFE8" stroke-width="4"/>

  <!-- Slack mark: solid official-style color blocks -->
  <g transform="translate(292 396) scale(3.58306189)">
    <path fill="#E01E5A" d="M25.8 77.6c0 7.1-5.8 12.9-12.9 12.9S0 84.7 0 77.6s5.8-12.9 12.9-12.9h12.9v12.9z"/>
    <path fill="#E01E5A" d="M32.3 77.6c0-7.1 5.8-12.9 12.9-12.9s12.9 5.8 12.9 12.9v32.3c0 7.1-5.8 12.9-12.9 12.9s-12.9-5.8-12.9-12.9V77.6z"/>
    <path fill="#36C5F0" d="M45.2 25.8c-7.1 0-12.9-5.8-12.9-12.9S38.1 0 45.2 0s12.9 5.8 12.9 12.9v12.9H45.2z"/>
    <path fill="#36C5F0" d="M45.2 32.3c7.1 0 12.9 5.8 12.9 12.9s-5.8 12.9-12.9 12.9H12.9C5.8 58.1 0 52.3 0 45.2s5.8-12.9 12.9-12.9h32.3z"/>
    <path fill="#2EB67D" d="M97 45.2c0-7.1 5.8-12.9 12.9-12.9s12.9 5.8 12.9 12.9-5.8 12.9-12.9 12.9H97V45.2z"/>
    <path fill="#2EB67D" d="M90.5 45.2c0 7.1-5.8 12.9-12.9 12.9s-12.9-5.8-12.9-12.9V12.9C64.7 5.8 70.5 0 77.6 0s12.9 5.8 12.9 12.9v32.3z"/>
    <path fill="#ECB22E" d="M77.6 97c7.1 0 12.9 5.8 12.9 12.9s-5.8 12.9-12.9 12.9-12.9-5.8-12.9-12.9V97h12.9z"/>
    <path fill="#ECB22E" d="M77.6 90.5c-7.1 0-12.9-5.8-12.9-12.9s5.8-12.9 12.9-12.9h32.3c7.1 0 12.9 5.8 12.9 12.9s-5.8 12.9-12.9 12.9H77.6z"/>
  </g>
</svg>
